<svg xmlns="http://www.w3.org/2000/svg" viewBox="0 0 512 512" width="512" height="512">
  <rect width="512" height="512" rx="80" fill="#1a1a2e"/>
  <rect x="40" y="40" width="432" height="432" rx="60" fill="#16213e"/>
  <!-- Creature egg shape -->
  <ellipse cx="256" cy="280" rx="120" ry="140" fill="#e8d5b7"/>
  <ellipse cx="256" cy="248" rx="120" ry="140" fill="#f5e6d3"/>
  <!-- Spots -->
  <circle cx="210" cy="212" r="22" fill="#ff6b35" opacity="0.8"/>
  <circle cx="300" cy="228" r="16" fill="#4fc3f7" opacity="0.8"/>
  <circle cx="232" cy="288" r="14" fill="#81c784" opacity="0.8"/>
  <!-- Eyes -->
  <circle cx="224" cy="228" r="22" fill="white"/>
  <circle cx="288" cy="228" r="22" fill="white"/>
  <circle cx="230" cy="234" r="14" fill="#1a1a2e"/>
  <circle cx="294" cy="234" r="14" fill="#1a1a2e"/>
  <circle cx="233" cy="231" r="5" fill="white"/>
  <circle cx="297" cy="231" r="5" fill="white"/>
  <!-- Smile -->
  <path d="M 220 264 Q 256 290 292 264" stroke="#1a1a2e" stroke-width="8" fill="none" stroke-linecap="round"/>
  <!-- Decorative stars -->
  <text x="150" y="160" font-size="32" fill="#ffd54f">★</text>
  <text x="340" y="150" font-size="24" fill="#ce93d8">★</text>
  <text x="370" y="320" font-size="20" fill="#81c784">★</text>
  <!-- Title text -->
  <text x="256" y="440" text-anchor="middle" font-family="monospace" font-size="32" font-weight="bold" fill="#ffd54f">DigiRaise</text>
  <text x="256" y="480" text-anchor="middle" font-family="monospace" font-size="20" fill="#ce93d8">デジレイズ</text>
</svg>
